<svg xmlns="http://www.w3.org/2000/svg" width="298.917" height="201.399" viewBox="0 0 298.917 201.399">
  <path id="Path_44709" data-name="Path 44709" d="M726.878,509.944c-5.838-11.942-18.562-21.082-32.821-26.879s-30.08-8.6-45.79-10.966a970.707,970.707,0,0,0-131.881-10.686c-16-.2-32.987-.232-46.519-7.079-17.271-8.738-24.145-26.277-25.826-42.607-2.1-20.356-11.4-71.676,13.015-85.609,14.932-8.523,34.313-9.845,52.636-10.026,44.544-.44,89.343,4.214,131.615,15.494,26.889,7.175,53.563,17.55,71.545,35.127,17.443,17.05,25.089,62.963,26.395,85S736,495.7,731.466,517.463C730.061,512.278,729.293,514.883,726.878,509.944Z" transform="translate(-440.558 -316.064)" fill="#1c1c1c"/>
</svg>
